<svg width="38" height="47" viewBox="0 0 38 47" fill="none" xmlns="http://www.w3.org/2000/svg">
<path d="M40.0866 4.45975C38.9316 3.42775 37.6139 2.58775 36.1769 2.00725C34.7046 1.4125 33.1311 1.096 31.5471 1.0195C31.2651 1.006 30.9824 1 30.7004 1C29.2221 1.00375 27.7041 1.38775 26.3084 2.1115C24.1064 3.25375 21.4791 3.253 19.2779 2.1115C17.8821 1.38775 16.3634 1.00375 14.8859 1C13.2951 1 11.7051 1.2175 10.1924 1.72C8.72239 2.20825 7.34689 2.959 6.13489 3.92275C5.91889 4.0945 5.70664 4.27375 5.50039 4.459C2.43964 7.20175 0.806136 11.3013 1.01839 15.709C1.22314 19.6983 2.54089 25.0315 7.52314 28.1898C7.49464 29.299 7.47214 30.4405 7.55014 31.5948C7.60339 32.2968 7.66414 33.0925 7.78864 33.883C8.46364 38.2495 9.79564 43.1313 14.5551 46.2295C15.6974 46.9728 17.5446 48.0498 18.7934 46.8783C19.6649 46.06 19.8831 44.5848 19.9446 43.4485C19.9469 43.3953 20.2356 38.5053 22.8276 33.6723C23.8746 35.3995 25.5126 38.8345 26.0924 44.098C26.2551 45.5755 26.8919 47.4183 28.6829 47.4183C29.6151 47.4183 30.4596 46.9023 30.7956 46.6975C33.6141 44.9778 35.5806 42.6393 36.8076 39.55C38.2724 35.8765 38.4164 32.3035 38.1276 28.1553C43.0799 24.979 44.3721 19.672 44.5581 15.7008C44.7816 11.2945 43.1511 7.19725 40.0866 4.45975ZM28.5329 23.761C27.2549 22.8618 25.4751 21.8598 23.4329 21.1135C22.9859 20.95 22.5861 20.836 22.1474 21.1135C20.1104 21.8575 18.3344 22.8558 17.0579 23.7535C16.8359 20.824 15.9779 17.8683 15.1814 15.7233L20.5034 17.1048C22.1549 17.5345 23.8986 17.524 25.5441 17.0748L30.3801 15.715C29.6024 17.8833 28.7519 20.8368 28.5329 23.761ZM23.5821 30.8433C23.3474 30.583 23.0084 30.4473 22.6566 30.475C22.3079 30.5028 21.9914 30.6918 21.8016 30.9865C18.0861 36.7405 17.7134 43.063 17.6999 43.3278C17.6991 43.336 17.6976 43.3435 17.6976 43.3518C14.7561 36.289 16.5854 28.2415 16.9739 26.728C17.4014 26.2128 19.7091 24.427 22.7901 23.2743C25.9176 24.4443 28.2509 26.269 28.6266 26.752C29.0729 28.2213 31.3161 36.43 28.2929 43.57C27.2856 35.0508 23.7351 31.0113 23.5821 30.8433ZM15.6194 44.2278C11.7374 41.602 10.6019 37.3585 10.0109 33.5343C9.89989 32.8308 9.84289 32.0823 9.79339 31.4313C9.71689 30.31 9.74614 29.1933 9.77689 28.009C9.79339 27.3385 9.71839 26.8848 9.10189 26.5263C4.61014 23.917 3.44614 19.144 3.26389 15.5943C3.08464 11.8698 4.44589 8.4205 7.00039 6.1315C8.54014 4.7515 10.4286 3.8305 12.4619 3.457C14.4359 3.09475 16.4324 3.16825 18.2406 4.10575C21.0899 5.58325 24.4926 5.584 27.3426 4.10575C28.4211 3.54625 29.5836 3.24925 30.7049 3.247C32.2806 3.247 33.8549 3.5005 35.3204 4.09C36.5189 4.57225 37.6236 5.2705 38.5851 6.133C41.1404 8.416 42.4994 11.8608 42.3119 15.5875C42.1454 19.1605 40.9859 23.9635 36.4131 26.5773C36.0764 26.77 35.8041 27.2388 35.8416 27.6505C36.1694 31.7823 36.1034 35.2443 34.7189 38.716C33.8054 41.0163 32.4096 42.8238 30.4686 44.2165C32.6721 38.8442 32.5229 32.5915 31.0499 27.043C30.1409 23.62 31.3319 19.7268 32.4966 16.474C32.7764 15.6933 32.6001 14.8308 32.0369 14.2203C31.4676 13.6068 30.6126 13.3615 29.8094 13.5805L24.9509 14.9028C23.6826 15.2478 22.3401 15.256 21.0666 14.926L15.7446 13.5445C14.9414 13.3353 14.0939 13.5873 13.5336 14.2008C12.9771 14.8105 12.8046 15.67 13.0829 16.4448C14.1944 19.5415 15.3944 23.0073 14.7404 26.335C14.3016 28.5655 13.8981 30.7518 13.8066 33.034C13.7339 34.852 13.8081 36.6783 14.0654 38.4798C14.2739 39.9378 14.6069 41.3943 15.0771 42.7908C15.0771 42.7908 15.4101 43.9698 15.6194 44.2278Z" fill="white" stroke="#25B4F8" stroke-width="0.7"/>
</svg>
